<svg width="30" height="31" viewBox="0 0 30 31" fill="none" xmlns="http://www.w3.org/2000/svg">
<path d="M0 30.3335H3.33333V27.0002H0V30.3335ZM6.66667 30.3335H10V27.0002H6.66667V30.3335ZM3.33333 7.00016H0V10.3335H3.33333V7.00016ZM0 23.6668H3.33333V20.3335H0V23.6668ZM10 0.333496H6.66667V3.66683H10V0.333496ZM3.33333 0.333496H0V3.66683H3.33333V0.333496ZM23.3333 0.333496H20V3.66683H23.3333V0.333496ZM26.6667 10.3335H30V7.00016H26.6667V10.3335ZM26.6667 0.333496V3.66683H30V0.333496H26.6667ZM20 30.3335H23.3333V27.0002H20V30.3335ZM16.6667 0.333496H13.3333V13.6668H0V17.0002H13.3333V30.3335H16.6667V17.0002H30V13.6668H16.6667V0.333496ZM26.6667 30.3335H30V27.0002H26.6667V30.3335ZM26.6667 23.6668H30V20.3335H26.6667V23.6668Z" fill="white"/>
</svg>
