<svg width="38" height="24" viewBox="0 0 38 24" fill="none" xmlns="http://www.w3.org/2000/svg">
<path d="M25.6667 10.3333C28.4334 10.3333 30.6501 8.09992 30.6501 5.33325C30.6501 2.56659 28.4334 0.333252 25.6667 0.333252C22.9001 0.333252 20.6667 2.56659 20.6667 5.33325C20.6667 8.09992 22.9001 10.3333 25.6667 10.3333ZM12.3334 10.3333C15.1001 10.3333 17.3167 8.09992 17.3167 5.33325C17.3167 2.56659 15.1001 0.333252 12.3334 0.333252C9.56675 0.333252 7.33341 2.56659 7.33341 5.33325C7.33341 8.09992 9.56675 10.3333 12.3334 10.3333ZM12.3334 13.6666C8.45008 13.6666 0.666748 15.6166 0.666748 19.4999V23.6666H24.0001V19.4999C24.0001 15.6166 16.2167 13.6666 12.3334 13.6666ZM25.6667 13.6666C25.1834 13.6666 24.6334 13.6999 24.0501 13.7499C25.9834 15.1499 27.3334 17.0333 27.3334 19.4999V23.6666H37.3334V19.4999C37.3334 15.6166 29.5501 13.6666 25.6667 13.6666Z" fill="white"/>
</svg>
