<svg width="32" height="33" viewBox="0 0 32 33" fill="none" xmlns="http://www.w3.org/2000/svg">
<path d="M14.3333 6.50002H19.3333L24.8166 1.00002C24.9716 0.843802 25.1559 0.719812 25.359 0.635197C25.5621 0.550583 25.7799 0.507019 26 0.507019C26.22 0.507019 26.4378 0.550583 26.6409 0.635197C26.844 0.719812 27.0284 0.843802 27.1833 1.00002L31.4833 5.31668C31.7937 5.62895 31.968 6.05137 31.968 6.49168C31.968 6.93199 31.7937 7.35441 31.4833 7.66668L27.6666 11.5H14.3333V14.8333C14.3333 15.2754 14.1577 15.6993 13.8451 16.0119C13.5326 16.3244 13.1087 16.5 12.6666 16.5C12.2246 16.5 11.8007 16.3244 11.4881 16.0119C11.1756 15.6993 11 15.2754 11 14.8333V9.83335C11 8.94929 11.3512 8.10145 11.9763 7.47633C12.6014 6.8512 13.4492 6.50002 14.3333 6.50002ZM4.3333 14.8333V21.5L0.516637 25.3167C0.206219 25.629 0.0319824 26.0514 0.0319824 26.4917C0.0319824 26.932 0.206219 27.3544 0.516637 27.6667L4.81664 31.9833C4.97157 32.1396 5.15591 32.2636 5.35901 32.3482C5.56211 32.4328 5.77995 32.4763 5.99997 32.4763C6.21999 32.4763 6.43783 32.4328 6.64093 32.3482C6.84403 32.2636 7.02836 32.1396 7.1833 31.9833L14.3333 24.8333H21C21.442 24.8333 21.8659 24.6578 22.1785 24.3452C22.491 24.0326 22.6666 23.6087 22.6666 23.1667V21.5H24.3333C24.7753 21.5 25.1993 21.3244 25.5118 21.0119C25.8244 20.6993 26 20.2754 26 19.8333V18.1667H27.6666C28.1087 18.1667 28.5326 17.9911 28.8451 17.6785C29.1577 17.366 29.3333 16.942 29.3333 16.5V14.8333H17.6666V16.5C17.6666 17.3841 17.3154 18.2319 16.6903 18.857C16.0652 19.4822 15.2174 19.8333 14.3333 19.8333H11C10.1159 19.8333 9.26807 19.4822 8.64295 18.857C8.01783 18.2319 7.66664 17.3841 7.66664 16.5V11.5L4.3333 14.8333Z" fill="white"/>
</svg>
