<svg width="48" height="39" viewBox="0 0 48 39" fill="none" xmlns="http://www.w3.org/2000/svg">
<path d="M16.44 0.559994C10.92 2.23999 6.84 4.76 4.44 7.87999C2.04 11 0.84 15.2 0.84 20.24V38.84H21.36V19.16H11.76V18.92C11.76 16.16 12.36 14 13.56 12.44C14.76 11 17.04 9.68 20.4 8.48L16.44 0.559994ZM42.36 0.559994C36.84 2.23999 32.76 4.76 30.36 7.87999C27.96 11 26.76 15.2 26.76 20.24V38.84H47.28V19.16H37.68V18.92C37.68 16.16 38.28 14 39.48 12.44C40.68 11 42.96 9.68 46.32 8.48L42.36 0.559994Z" fill="#F46A5D"/>
</svg>
