<svg width="20" height="21" viewBox="0 0 20 21" fill="none" xmlns="http://www.w3.org/2000/svg">
<path d="M10 0.978699C4.48 0.978699 0 5.41104 0 10.8723C0 16.3336 4.48 20.7659 10 20.7659C15.52 20.7659 20 16.3336 20 10.8723C20 5.41104 15.52 0.978699 10 0.978699ZM10 18.7872C5.59 18.7872 2 15.2354 2 10.8723C2 6.50923 5.59 2.95742 10 2.95742C14.41 2.95742 18 6.50923 18 10.8723C18 15.2354 14.41 18.7872 10 18.7872ZM14.59 6.49934L8 13.0192L5.41 10.4667L4 11.8617L8 15.8191L16 7.90423L14.59 6.49934Z" fill="#11B017"/>
</svg>
