<svg width="24" height="21" viewBox="0 0 24 21" fill="none" xmlns="http://www.w3.org/2000/svg">
<path d="M23.5608 8.56078L21.4397 6.43969C21.1584 6.15844 20.7769 6.00047 20.3789 6.00047H18V2.25C18 1.00734 16.9927 0 15.75 0H8.25C7.00734 0 6 1.00734 6 2.25V6H3.62109C3.22312 6 2.84203 6.15797 2.56031 6.43922L0.439219 8.56078C0.157969 8.84203 0 9.22359 0 9.62156V13.5H6V12.75C6 12.3356 6.33563 12 6.75 12H8.25C8.66438 12 9 12.3356 9 12.75V13.5H15V12.75C15 12.3356 15.3356 12 15.75 12H17.25C17.6644 12 18 12.3356 18 12.75V13.5H24V9.62109C24 9.22359 23.842 8.84203 23.5608 8.56078ZM15 6H9V3H15V6ZM18 15.75C18 16.1644 17.6644 16.5 17.25 16.5H15.75C15.3356 16.5 15 16.1644 15 15.75V15H9V15.75C9 16.1644 8.66438 16.5 8.25 16.5H6.75C6.33563 16.5 6 16.1644 6 15.75V15H0V19.5C0 20.3283 0.671719 21 1.5 21H22.5C23.3283 21 24 20.3283 24 19.5V15H18V15.75Z" fill="#CFD4DA"/>
</svg>
