<svg width="20" height="30" viewBox="0 0 20 30" fill="none" xmlns="http://www.w3.org/2000/svg">
<path d="M12.6667 6.00008C14.1334 6.00008 15.3334 4.80008 15.3334 3.33341C15.3334 1.86675 14.1334 0.666748 12.6667 0.666748C11.2001 0.666748 10.0001 1.86675 10.0001 3.33341C10.0001 4.80008 11.2001 6.00008 12.6667 6.00008ZM18.0001 13.0401C16.3601 12.5467 15.0401 11.4801 14.2667 10.1334L12.9334 8.00008C12.3867 7.13341 11.4534 6.66675 10.4801 6.66675C9.44006 6.66675 8.36006 7.33341 8.10673 8.58675C7.85339 9.84008 4.00006 29.3334 4.00006 29.3334H6.80006L9.20006 18.6667L12.0001 21.3334V29.3334H14.6667V19.3334L11.8667 16.6667L12.6667 12.6667C14.0001 14.2001 15.8801 15.3467 18.0001 15.7867V29.3334H20.0001V10.6667H18.0001V13.0401ZM4.57339 16.1734L1.74673 15.6267C1.02673 15.4801 0.546726 14.7867 0.693393 14.0667L1.70673 8.82675C1.98673 7.38675 3.38673 6.44008 4.82673 6.72008L6.37339 7.02675L4.57339 16.1734Z" fill="#7D8897"/>
</svg>
