<svg width="34" height="34" viewBox="0 0 34 34" fill="none" xmlns="http://www.w3.org/2000/svg">
<path d="M17.0002 0.333252C7.80016 0.333252 0.333496 7.79992 0.333496 16.9999C0.333496 26.1999 7.80016 33.6666 17.0002 33.6666C26.2002 33.6666 33.6668 26.1999 33.6668 16.9999C33.6668 7.79992 26.2002 0.333252 17.0002 0.333252ZM19.3502 27.1499V30.3333H14.9002V27.1166C12.0502 26.5166 9.6335 24.6833 9.45016 21.4499H12.7168C12.8835 23.1999 14.0835 24.5666 17.1335 24.5666C20.4002 24.5666 21.1335 22.9333 21.1335 21.9166C21.1335 20.5333 20.4002 19.2333 16.6835 18.3499C12.5502 17.3499 9.71683 15.6499 9.71683 12.2333C9.71683 9.36659 12.0335 7.49992 14.9002 6.88325V3.66659H19.3502V6.91659C22.4502 7.66659 24.0002 10.0166 24.1002 12.5666H20.8335C20.7502 10.7166 19.7668 9.44992 17.1335 9.44992C14.6335 9.44992 13.1335 10.5833 13.1335 12.1833C13.1335 13.5833 14.2168 14.4999 17.5835 15.3666C20.9502 16.2333 24.5502 17.6833 24.5502 21.8833C24.5335 24.9333 22.2502 26.5999 19.3502 27.1499Z" fill="white"/>
</svg>
