<svg width="34" height="20" viewBox="0 0 34 20" fill="none" xmlns="http://www.w3.org/2000/svg">
<path d="M5.91683 10.8333C7.90016 10.8333 8.2835 12.4999 11.4668 12.4999C14.7168 12.4999 14.9502 10.8333 17.0168 10.8333C19.0002 10.8333 19.3835 12.4999 22.5668 12.4999C25.8168 12.4999 26.0502 10.8333 28.1168 10.8333C30.1002 10.8333 30.4502 12.4666 33.6335 12.4999V9.16658C31.6502 9.16658 31.2668 7.49992 28.0835 7.49992C24.8335 7.49992 24.6002 9.16658 22.5335 9.16658C20.5502 9.16658 20.1668 7.49992 16.9835 7.49992C13.7335 7.49992 13.5002 9.16658 11.4335 9.16658C9.45016 9.16658 9.06683 7.49992 5.8835 7.49992C2.6335 7.49992 2.40016 9.16658 0.333496 9.16658V12.4999C3.50016 12.4999 3.95016 10.8333 5.91683 10.8333ZM28.1168 14.1666C24.8668 14.1666 24.6335 15.8333 22.5668 15.8333C20.5835 15.8333 20.2002 14.1666 17.0168 14.1666C13.7668 14.1666 13.5168 15.8333 11.4502 15.8333C9.3835 15.8333 9.15016 14.1666 5.90016 14.1666C2.65016 14.1666 2.40016 15.8333 0.333496 15.8333V19.1666C3.5835 19.1666 3.85016 17.4999 5.90016 17.4999C7.96683 17.4999 8.20016 19.1666 11.4502 19.1666C14.7002 19.1666 14.9502 17.4999 17.0168 17.4999C19.0002 17.4999 19.3835 19.1666 22.5668 19.1666C25.8002 19.1666 26.0502 17.4999 28.1168 17.4999C30.1002 17.4999 30.4835 19.1666 33.6668 19.1666V15.8333C31.6002 15.8333 31.3668 14.1666 28.1168 14.1666ZM5.91683 4.16658C7.90016 4.16658 8.2835 5.83325 11.4668 5.83325C14.7168 5.83325 14.9502 4.16658 17.0168 4.16658C19.0002 4.16658 19.3835 5.83325 22.5668 5.83325C25.8168 5.83325 26.0502 4.16658 28.1168 4.16658C30.1002 4.16658 30.4502 5.79992 33.6335 5.83325V2.49992C31.6502 2.49992 31.2668 0.833252 28.0835 0.833252C24.8335 0.833252 24.6002 2.49992 22.5335 2.49992C20.5502 2.49992 20.1668 0.833252 16.9835 0.833252C13.7335 0.833252 13.5002 2.49992 11.4335 2.49992C9.45016 2.49992 9.06683 0.833252 5.8835 0.833252C2.6335 0.833252 2.40016 2.49992 0.333496 2.49992V5.83325C3.50016 5.83325 3.95016 4.16658 5.91683 4.16658Z" fill="white"/>
</svg>
