<svg width="40" height="32" viewBox="0 0 40 32" fill="none" xmlns="http://www.w3.org/2000/svg">
<path d="M36.6667 0H3.33333C1.49306 0 0 1.51972 0 3.39286V28.2738C0 30.147 1.49306 31.6667 3.33333 31.6667H36.6667C38.5069 31.6667 40 30.147 40 28.2738V3.39286C40 1.51972 38.5069 0 36.6667 0ZM12.2222 6.78571C14.6736 6.78571 16.6667 8.81436 16.6667 11.3095C16.6667 13.8047 14.6736 15.8333 12.2222 15.8333C9.77083 15.8333 7.77778 13.8047 7.77778 11.3095C7.77778 8.81436 9.77083 6.78571 12.2222 6.78571ZM20 23.5238C20 24.2731 19.3056 24.881 18.4444 24.881H6C5.13889 24.881 4.44444 24.2731 4.44444 23.5238V22.1667C4.44444 19.9189 6.53472 18.0952 9.11111 18.0952H9.45833C10.3125 18.4557 11.2431 18.6607 12.2222 18.6607C13.2014 18.6607 14.1389 18.4557 14.9861 18.0952H15.3333C17.9097 18.0952 20 19.9189 20 22.1667V23.5238ZM35.5556 19.7917C35.5556 20.1027 35.3056 20.3571 35 20.3571H25C24.6944 20.3571 24.4444 20.1027 24.4444 19.7917V18.6607C24.4444 18.3497 24.6944 18.0952 25 18.0952H35C35.3056 18.0952 35.5556 18.3497 35.5556 18.6607V19.7917ZM35.5556 15.2679C35.5556 15.5789 35.3056 15.8333 35 15.8333H25C24.6944 15.8333 24.4444 15.5789 24.4444 15.2679V14.1369C24.4444 13.8259 24.6944 13.5714 25 13.5714H35C35.3056 13.5714 35.5556 13.8259 35.5556 14.1369V15.2679ZM35.5556 10.744C35.5556 11.0551 35.3056 11.3095 35 11.3095H25C24.6944 11.3095 24.4444 11.0551 24.4444 10.744V9.6131C24.4444 9.30208 24.6944 9.04762 25 9.04762H35C35.3056 9.04762 35.5556 9.30208 35.5556 9.6131V10.744Z" fill="white"/>
</svg>
