<svg width="38" height="20" viewBox="0 0 38 20" fill="none" xmlns="http://www.w3.org/2000/svg">
<path d="M34.0001 6.66667H20.0834C18.7167 2.78333 15.0167 0 10.6667 0C5.15008 0 0.666748 4.48333 0.666748 10C0.666748 15.5167 5.15008 20 10.6667 20C15.0167 20 18.7167 17.2167 20.0834 13.3333H20.6667L24.0001 16.6667L27.3334 13.3333L30.6667 16.6667L37.3334 9.93333L34.0001 6.66667ZM10.6667 15C7.91675 15 5.66675 12.75 5.66675 10C5.66675 7.25 7.91675 5 10.6667 5C13.4167 5 15.6667 7.25 15.6667 10C15.6667 12.75 13.4167 15 10.6667 15Z" fill="white"/>
</svg>
