<svg width="20" height="20" viewBox="0 0 20 20" fill="none" xmlns="http://www.w3.org/2000/svg">
<path d="M19.2 0H0.8C0.3575 0 0 0.3575 0 0.8V19.2C0 19.6425 0.3575 20 0.8 20H19.2C19.6425 20 20 19.6425 20 19.2V0.8C20 0.3575 19.6425 0 19.2 0ZM15.3825 7.2425C15.39 7.36 15.39 7.4825 15.39 7.6025C15.39 11.2725 12.595 15.5 7.4875 15.5C5.9125 15.5 4.4525 15.0425 3.2225 14.255C3.4475 14.28 3.6625 14.29 3.8925 14.29C5.1925 14.29 6.3875 13.85 7.34 13.105C6.12 13.08 5.095 12.28 4.745 11.18C5.1725 11.2425 5.5575 11.2425 5.9975 11.13C5.36932 11.0024 4.80469 10.6612 4.39954 10.1645C3.99439 9.66771 3.77372 9.04602 3.775 8.405V8.37C4.1425 8.5775 4.575 8.705 5.0275 8.7225C4.64711 8.46899 4.33514 8.12553 4.11928 7.72257C3.90341 7.31962 3.79031 6.86963 3.79 6.4125C3.79 5.895 3.925 5.4225 4.1675 5.0125C4.86476 5.87084 5.73483 6.57286 6.72116 7.07291C7.7075 7.57297 8.78802 7.85988 9.8925 7.915C9.5 6.0275 10.91 4.5 12.605 4.5C13.405 4.5 14.125 4.835 14.6325 5.375C15.26 5.2575 15.86 5.0225 16.395 4.7075C16.1875 5.35 15.7525 5.8925 15.175 6.235C15.735 6.175 16.275 6.02 16.775 5.8025C16.3975 6.3575 15.925 6.85 15.3825 7.2425Z" fill="#1DA1F2"/>
</svg>
