<svg width="34" height="33" viewBox="0 0 34 33" fill="none" xmlns="http://www.w3.org/2000/svg">
<path d="M30.3333 7.16667H26.6999C26.8833 6.65 26.9999 6.08333 26.9999 5.5C26.9999 2.73333 24.7666 0.5 21.9999 0.5C20.2499 0.5 18.7333 1.4 17.8333 2.75L16.9999 3.86667L16.1666 2.73333C15.2666 1.4 13.7499 0.5 11.9999 0.5C9.23325 0.5 6.99992 2.73333 6.99992 5.5C6.99992 6.08333 7.11659 6.65 7.29992 7.16667H3.66659C1.81659 7.16667 0.349919 8.65 0.349919 10.5L0.333252 28.8333C0.333252 30.6833 1.81659 32.1667 3.66659 32.1667H30.3333C32.1833 32.1667 33.6666 30.6833 33.6666 28.8333V10.5C33.6666 8.65 32.1833 7.16667 30.3333 7.16667ZM21.9999 3.83333C22.9166 3.83333 23.6666 4.58333 23.6666 5.5C23.6666 6.41667 22.9166 7.16667 21.9999 7.16667C21.0833 7.16667 20.3333 6.41667 20.3333 5.5C20.3333 4.58333 21.0833 3.83333 21.9999 3.83333ZM11.9999 3.83333C12.9166 3.83333 13.6666 4.58333 13.6666 5.5C13.6666 6.41667 12.9166 7.16667 11.9999 7.16667C11.0833 7.16667 10.3333 6.41667 10.3333 5.5C10.3333 4.58333 11.0833 3.83333 11.9999 3.83333ZM30.3333 28.8333H3.66659V25.5H30.3333V28.8333ZM30.3333 20.5H3.66659V10.5H12.1333L8.66659 15.2167L11.3666 17.1667L16.9999 9.5L22.6333 17.1667L25.3333 15.2167L21.8666 10.5H30.3333V20.5Z" fill="white"/>
</svg>
