<svg width="30" height="34" viewBox="0 0 30 34" fill="none" xmlns="http://www.w3.org/2000/svg">
<path d="M26.6667 3.33333H25V0H21.6667V3.33333H8.33333V0H5V3.33333H3.33333C1.48333 3.33333 0.0166667 4.83333 0.0166667 6.66667L0 30C0 31.8333 1.48333 33.3333 3.33333 33.3333H26.6667C28.5 33.3333 30 31.8333 30 30V6.66667C30 4.83333 28.5 3.33333 26.6667 3.33333ZM26.6667 30H3.33333V13.3333H26.6667V30ZM10 20H6.66667V16.6667H10V20ZM16.6667 20H13.3333V16.6667H16.6667V20ZM23.3333 20H20V16.6667H23.3333V20ZM10 26.6667H6.66667V23.3333H10V26.6667ZM16.6667 26.6667H13.3333V23.3333H16.6667V26.6667ZM23.3333 26.6667H20V23.3333H23.3333V26.6667Z" fill="white"/>
</svg>
