<svg width="28" height="28" viewBox="0 0 28 28" fill="none" xmlns="http://www.w3.org/2000/svg">
<path d="M13.9998 0.666748C6.63984 0.666748 0.666504 6.64008 0.666504 14.0001C0.666504 21.3601 6.63984 27.3334 13.9998 27.3334C21.3598 27.3334 27.3332 21.3601 27.3332 14.0001C27.3332 6.64008 21.3598 0.666748 13.9998 0.666748ZM15.8798 22.1201V24.6667H12.3198V22.0934C10.0398 21.6134 8.1065 20.1467 7.95984 17.5601H10.5732C10.7065 18.9601 11.6665 20.0534 14.1065 20.0534C16.7198 20.0534 17.3065 18.7467 17.3065 17.9334C17.3065 16.8267 16.7198 15.7867 13.7465 15.0801C10.4398 14.2801 8.17317 12.9201 8.17317 10.1867C8.17317 7.89342 10.0265 6.40008 12.3198 5.90675V3.33341H15.8798V5.93341C18.3598 6.53341 19.5998 8.41342 19.6798 10.4534H17.0665C16.9998 8.97342 16.2132 7.96008 14.1065 7.96008C12.1065 7.96008 10.9065 8.86675 10.9065 10.1467C10.9065 11.2667 11.7732 12.0001 14.4665 12.6934C17.1598 13.3867 20.0398 14.5467 20.0398 17.9067C20.0265 20.3467 18.1998 21.6801 15.8798 22.1201Z" fill="#7D8897"/>
</svg>
