<svg width="25" height="27" viewBox="0 0 25 27" fill="none" xmlns="http://www.w3.org/2000/svg">
<path d="M16.6665 12.8333V4.83325L12.6665 0.833252L8.6665 4.83325V7.49992H0.666504V26.1666H24.6665V12.8333H16.6665ZM5.99984 23.4999H3.33317V20.8333H5.99984V23.4999ZM5.99984 18.1666H3.33317V15.4999H5.99984V18.1666ZM5.99984 12.8333H3.33317V10.1666H5.99984V12.8333ZM13.9998 23.4999H11.3332V20.8333H13.9998V23.4999ZM13.9998 18.1666H11.3332V15.4999H13.9998V18.1666ZM13.9998 12.8333H11.3332V10.1666H13.9998V12.8333ZM13.9998 7.49992H11.3332V4.83325H13.9998V7.49992ZM21.9998 23.4999H19.3332V20.8333H21.9998V23.4999ZM21.9998 18.1666H19.3332V15.4999H21.9998V18.1666Z" fill="#7D8897"/>
</svg>
