<svg width="48" height="52" viewBox="0 0 48 52" fill="none" xmlns="http://www.w3.org/2000/svg">
<path fill-rule="evenodd" clip-rule="evenodd" d="M22.1798 0.660838C23.2029 0.27945 24.3208 0.229729 25.3739 0.518768L25.8198 0.660838L43.968 7.44146C44.8882 7.78525 45.6913 8.3825 46.2839 9.16362C46.8765 9.94474 47.2341 10.8776 47.315 11.8534L47.3332 12.2796V26.1327C47.3331 30.3184 46.1987 34.4265 44.0499 38.0232C41.9011 41.62 38.8175 44.572 35.1247 46.5676L34.435 46.9267L25.7395 51.2585C25.2607 51.4967 24.7377 51.6339 24.2033 51.6614C23.6688 51.689 23.1344 51.6063 22.6335 51.4187L22.2602 51.2585L13.5647 46.9267C9.80698 45.0547 6.62629 42.2066 4.35837 38.683C2.09044 35.1595 0.819416 31.0912 0.679467 26.9077L0.666504 26.1327V12.2796C0.666519 11.3009 0.945536 10.3424 1.47107 9.51561C1.99661 8.68881 2.74705 8.02774 3.63502 7.60937L4.03169 7.44146L22.1798 0.660838ZM32.9002 17.2805L20.9795 29.1575L16.3958 24.5906C15.9093 24.1063 15.2496 23.8343 14.5619 23.8346C13.8741 23.8348 13.2147 24.1072 12.7285 24.5919C12.2424 25.0766 11.9694 25.7339 11.9697 26.4191C11.9699 27.1043 12.2434 27.7614 12.7298 28.2457L18.9624 34.4555C19.2273 34.7195 19.5417 34.9289 19.8878 35.0718C20.2339 35.2146 20.6048 35.2882 20.9795 35.2882C21.3541 35.2882 21.725 35.2146 22.0711 35.0718C22.4172 34.9289 22.7317 34.7195 22.9965 34.4555L36.5661 20.933C36.8138 20.6947 37.0113 20.4097 37.1471 20.0945C37.283 19.7794 37.3545 19.4404 37.3575 19.0974C37.3605 18.7544 37.2949 18.4143 37.1646 18.0969C37.0342 17.7794 36.8417 17.491 36.5983 17.2485C36.3548 17.0059 36.0654 16.8141 35.7468 16.6842C35.4281 16.5544 35.0867 16.489 34.7425 16.492C34.3983 16.495 34.0581 16.5662 33.7417 16.7016C33.4254 16.837 33.1394 17.0338 32.9002 17.2805Z" fill="white"/>
</svg>
