<svg width="32" height="28" viewBox="0 0 32 28" fill="none" xmlns="http://www.w3.org/2000/svg">
<path d="M30.4 0.666748H8C7.57565 0.666748 7.16869 0.842343 6.86863 1.1549C6.56857 1.46746 6.4 1.89139 6.4 2.33341V7.33342H14.4V4.00008H24V20.6667H30.4C30.8243 20.6667 31.2313 20.4912 31.5314 20.1786C31.8314 19.866 32 19.4421 32 19.0001V2.33341C32 1.89139 31.8314 1.46746 31.5314 1.1549C31.2313 0.842343 30.8243 0.666748 30.4 0.666748ZM11.6 6.03133C11.6 6.15565 11.5526 6.27488 11.4682 6.36279C11.3838 6.4507 11.2693 6.50008 11.15 6.50008H9.65C9.53065 6.50008 9.41619 6.4507 9.3318 6.36279C9.24741 6.27488 9.2 6.15565 9.2 6.03133V4.46883C9.2 4.34451 9.24741 4.22528 9.3318 4.13738C9.41619 4.04947 9.53065 4.00008 9.65 4.00008H11.15C11.2693 4.00008 11.3838 4.04947 11.4682 4.13738C11.5526 4.22528 11.6 4.34451 11.6 4.46883V6.03133ZM29.2 16.8647C29.2 16.989 29.1526 17.1082 29.0682 17.1961C28.9838 17.284 28.8693 17.3334 28.75 17.3334H27.25C27.1307 17.3334 27.0162 17.284 26.9318 17.1961C26.8474 17.1082 26.8 16.989 26.8 16.8647V15.3022C26.8 15.1778 26.8474 15.0586 26.9318 14.9707C27.0162 14.8828 27.1307 14.8334 27.25 14.8334H28.75C28.8693 14.8334 28.9838 14.8828 29.0682 14.9707C29.1526 15.0586 29.2 15.1778 29.2 15.3022V16.8647ZM29.2 11.448C29.2 11.5723 29.1526 11.6915 29.0682 11.7795C28.9838 11.8674 28.8693 11.9167 28.75 11.9167H27.25C27.1307 11.9167 27.0162 11.8674 26.9318 11.7795C26.8474 11.6915 26.8 11.5723 26.8 11.448V9.8855C26.8 9.76118 26.8474 9.64195 26.9318 9.55404C27.0162 9.46613 27.1307 9.41675 27.25 9.41675H28.75C28.8693 9.41675 28.9838 9.46613 29.0682 9.55404C29.1526 9.64195 29.2 9.76118 29.2 9.8855V11.448ZM29.2 6.03133C29.2 6.15565 29.1526 6.27488 29.0682 6.36279C28.9838 6.4507 28.8693 6.50008 28.75 6.50008H27.25C27.1307 6.50008 27.0162 6.4507 26.9318 6.36279C26.8474 6.27488 26.8 6.15565 26.8 6.03133V4.46883C26.8 4.34451 26.8474 4.22528 26.9318 4.13738C27.0162 4.04947 27.1307 4.00008 27.25 4.00008H28.75C28.8693 4.00008 28.9838 4.04947 29.0682 4.13738C29.1526 4.22528 29.2 4.34451 29.2 4.46883V6.03133ZM20.8 9.00008H1.6C1.17565 9.00008 0.768687 9.17568 0.468629 9.48824C0.168571 9.8008 0 10.2247 0 10.6667L0 25.6667C0 26.1088 0.168571 26.5327 0.468629 26.8453C0.768687 27.1578 1.17565 27.3334 1.6 27.3334H20.8C21.2243 27.3334 21.6313 27.1578 21.9314 26.8453C22.2314 26.5327 22.4 26.1088 22.4 25.6667V10.6667C22.4 10.2247 22.2314 9.8008 21.9314 9.48824C21.6313 9.17568 21.2243 9.00008 20.8 9.00008ZM4.8 12.3334C5.11645 12.3334 5.42579 12.4312 5.68891 12.6143C5.95203 12.7974 6.15711 13.0577 6.27821 13.3623C6.39931 13.6668 6.43099 14.0019 6.36926 14.3252C6.30752 14.6485 6.15514 14.9455 5.93137 15.1786C5.70761 15.4117 5.42251 15.5704 5.11214 15.6347C4.80177 15.699 4.48007 15.666 4.18771 15.5399C3.89534 15.4137 3.64546 15.2001 3.46965 14.926C3.29384 14.652 3.2 14.3297 3.2 14.0001C3.2 13.5581 3.36857 13.1341 3.66863 12.8216C3.96869 12.509 4.37565 12.3334 4.8 12.3334ZM19.2 24.0001H3.2V22.3334L6.4 19.0001L8 20.6667L14.4 14.0001L19.2 19.0001V24.0001Z" fill="#7D8897"/>
</svg>
