<svg width="48" height="34" viewBox="0 0 48 34" fill="none" xmlns="http://www.w3.org/2000/svg">
<path d="M32.1665 15.8334C32.1665 20.5001 26.3332 24.0001 26.3332 27.5001H21.6665C21.6665 24.0001 15.8332 20.5001 15.8332 15.8334C15.8332 11.3301 19.4965 7.66675 23.9998 7.66675C28.5032 7.66675 32.1665 11.3301 32.1665 15.8334ZM26.3332 29.8334H21.6665V33.3334H26.3332V29.8334ZM47.3332 17.0001C47.3332 10.5601 44.7198 4.72675 40.4965 0.503418L38.0232 2.97675C41.6165 6.57008 43.8332 11.5401 43.8332 17.0001C43.8332 22.4601 41.6165 27.4301 38.0232 31.0234L40.4965 33.4967C44.7198 29.2734 47.3332 23.4401 47.3332 17.0001ZM4.1665 17.0001C4.1665 11.5401 6.38317 6.57008 9.9765 2.97675L7.50317 0.503418C3.27984 4.72675 0.666504 10.5601 0.666504 17.0001C0.666504 23.4401 3.27984 29.2734 7.50317 33.4967L9.9765 31.0234C6.38317 27.4301 4.1665 22.4601 4.1665 17.0001ZM36.8332 17.0001C36.8332 20.5467 35.3865 23.7434 33.0765 26.0768L35.5498 28.5501C38.5132 25.5867 40.3332 21.5034 40.3332 17.0001C40.3332 12.4968 38.5132 8.41342 35.5498 5.45008L33.0765 7.92342C35.3865 10.2567 36.8332 13.4534 36.8332 17.0001ZM12.4498 28.5501L14.9232 26.0768C12.5898 23.7434 11.1665 20.5467 11.1665 17.0001C11.1665 13.4534 12.6132 10.2567 14.9232 7.92342L12.4498 5.45008C9.4865 8.41342 7.6665 12.4968 7.6665 17.0001C7.6665 21.5034 9.4865 25.5867 12.4498 28.5501Z" fill="white"/>
</svg>
