<svg width="52" height="40" viewBox="0 0 52 40" fill="none" xmlns="http://www.w3.org/2000/svg">
<path d="M47.0002 11.8334C43.6168 11.8334 41.7268 15.1934 42.4968 17.6901L34.2135 25.9967C33.5135 25.7867 32.4868 25.7867 31.7868 25.9967L25.8368 20.0467C26.6302 17.5501 24.7402 14.1667 21.3335 14.1667C17.9502 14.1667 16.0368 17.5267 16.8302 20.0467L6.19016 30.6634C3.6935 29.8934 0.333496 31.7834 0.333496 35.1667C0.333496 37.7334 2.4335 39.8334 5.00016 39.8334C8.3835 39.8334 10.2735 36.4734 9.5035 33.9767L20.1202 23.3367C20.8202 23.5467 21.8468 23.5467 22.5468 23.3367L28.4968 29.2867C27.7035 31.7834 29.5935 35.1667 33.0002 35.1667C36.3835 35.1667 38.2968 31.8067 37.5035 29.2867L45.8102 21.0034C48.3068 21.7734 51.6668 19.8834 51.6668 16.5001C51.6668 13.9334 49.5668 11.8334 47.0002 11.8334Z" fill="white"/>
<path d="M33.0002 14.1667L35.1935 9.33675L40.0002 7.16675L35.1935 4.99675L33.0002 0.166748L30.8535 4.99675L26.0002 7.16675L30.8535 9.33675L33.0002 14.1667Z" fill="white"/>
<path d="M6.16683 18.8334L7.3335 14.1667L12.0002 13.0001L7.3335 11.8334L6.16683 7.16675L5.00016 11.8334L0.333496 13.0001L5.00016 14.1667L6.16683 18.8334Z" fill="white"/>
</svg>
