<svg width="914" height="408" viewBox="0 0 914 408" fill="none" xmlns="http://www.w3.org/2000/svg">
<g clip-path="url(#clip0_1301_9594)">
<path d="M476.67 108.12H514.98V95.7201H476.67V71.7501H517.05V59.3501H460.98V145.7H476.67V108.12Z" fill="white"/>
<path d="M543.73 147.16C547.87 147.21 551.93 145.98 555.35 143.64C558.71 141.4 561.28 138.16 562.71 134.39V145.7H576.58V84.8901H561.86V118.58C561.86 123.69 560.64 127.78 558.21 130.86C555.91 133.89 552.28 135.61 548.48 135.49C541.34 135.49 537.77 130.91 537.77 121.74V84.8901H523.18V123.89C523.18 139.38 530.03 147.12 543.73 147.12" fill="white"/>
<path d="M604.83 57.5298H590.23V145.71H604.83V57.5298Z" fill="white"/>
<path d="M633.36 57.5298H618.77V145.71H633.36V57.5298Z" fill="white"/>
<path d="M488.35 249.17C498.97 249.17 507.16 246.7 512.92 241.75C518.57 237.04 521.75 230.01 521.55 222.66C521.55 215.44 519.52 209.88 515.47 205.99C511.42 202.1 505.54 199.34 497.83 197.72L485.3 195.05C480.52 193.99 477.1 192.48 475.03 190.49C472.89 188.31 471.76 185.33 471.93 182.28C471.81 178.87 473.43 175.64 476.24 173.7C479.12 171.63 482.91 170.6 487.62 170.6C498.95 170.6 506.09 175.83 509.03 186.29L521.55 179.72C519.95 173.13 515.76 167.46 509.93 164C504.06 160.47 496.87 158.71 488.35 158.71C478.7 158.71 471.01 160.96 465.3 165.46C459.59 169.96 456.73 175.98 456.73 183.52C456.73 196.98 464.27 205.25 479.35 208.33L491.35 210.88C496.46 211.94 500.17 213.42 502.48 215.33C504.79 217.24 505.94 220.18 505.94 224.15C505.94 228.36 504.3 231.5 501.02 233.57C497.32 235.75 493.08 236.82 488.79 236.67C482.47 236.67 477.4 235.07 473.59 231.87C469.68 228.52 466.85 224.1 465.44 219.15L452.1 225C453.83 232.16 458.14 238.44 464.2 242.63C470.41 247.01 478.46 249.2 488.35 249.2" fill="white"/>
<path d="M563.74 234.82C561.78 235.3 559.76 235.55 557.74 235.54C551.82 235.54 548.86 232.34 548.86 225.94V196.87H563.7V186.29H548.9V165.13L534.31 171V186.33H523.36V196.91H534.31V228.29C534.31 234.77 535.81 239.72 538.81 243.13C541.81 246.54 546.81 248.24 553.81 248.23C557.17 248.2 560.52 247.84 563.81 247.14L563.74 234.82Z" fill="white"/>
<path d="M609.63 222.17C609.63 227.03 608.25 230.92 605.49 233.85C602.62 236.82 598.62 238.42 594.49 238.23C591.26 238.23 588.72 237.48 586.9 235.98C585.07 234.48 584.05 232.2 584.16 229.83C584.16 224.8 588.05 221.64 595.84 220.34L609.58 218.27L609.63 222.17ZM586 205.87C586.24 202.38 587.41 199.73 589.47 197.87C591.53 196.01 594.36 195.13 597.93 195.13C601.82 195.13 604.68 196.16 606.5 198.23C608.33 200.3 609.23 203.6 609.23 208.14V209.72L596.34 211.3C587.18 212.6 580.57 214.43 576.52 216.78C571.57 219.86 569.1 224.44 569.1 230.52C568.91 235.51 570.99 240.32 574.76 243.59C578.52 246.88 583.52 248.53 589.76 248.52C594.24 248.64 598.67 247.54 602.59 245.36C606.06 243.41 608.74 240.31 610.19 236.6C610.27 240.11 610.6 243.6 611.19 247.06H625.8C624.6 242.88 624 236.61 624 228.25V210.13C624 201.29 621.91 194.86 617.74 190.85C613.57 186.84 606.98 184.84 597.98 184.85C590.11 184.85 583.77 186.73 578.98 190.5C574.22 194.22 571.33 199.85 571.08 205.89L586 205.87Z" fill="white"/>
<path d="M661.82 196.26C665.08 196.12 668.27 197.3 670.64 199.55C672.86 201.74 674.23 204.9 674.71 209.03L688.94 206.72C688.05 199.83 685.25 194.46 680.55 190.61C675.85 186.76 669.73 184.84 662.19 184.83C652.94 184.83 645.64 187.67 640.29 193.35C634.94 199.03 632.27 206.81 632.29 216.69C632.29 226.34 634.99 234.06 640.38 239.86C645.77 245.66 653.01 248.56 662.09 248.56C669.31 248.56 675.33 246.61 680.15 242.72C685.03 238.74 688.19 233.04 688.97 226.79L675.2 224C673.82 232.67 669.44 237 662.06 237C657.73 237.18 653.6 235.14 651.12 231.58C648.52 227.98 647.22 222.89 647.23 216.32C647.23 210.08 648.53 205.18 651.12 201.61C653.54 198.12 657.57 196.1 661.82 196.25" fill="white"/>
<path d="M754.36 186.29H736.61L712.89 213.29V158.92H698.29V247.1H712.89V228.98L721.89 219.61L738.43 247.1H755.34L732.11 210.13L754.36 186.29Z" fill="white"/>
<path d="M507.08 322.11C506.09 325.16 505.36 328.3 504.89 331.47H504.65C504.23 328.32 503.5 325.23 502.46 322.23L482.87 262.14H461V348.5H474.74V285.5C474.77 282.33 474.61 279.16 474.26 276.01H474.74C475.12 279.12 475.85 282.18 476.93 285.13L497.61 348.5H511.61L532 285.13C533.02 282.16 533.75 279.11 534.2 276H534.57C534.22 279.15 534.05 282.32 534.08 285.49V348.49H548.43V262.14H526.43L507.08 322.11Z" fill="white"/>
<path d="M600.05 333.6C597.52 337.09 593.41 339.08 589.1 338.89C584.32 338.89 580.63 337.11 578.03 333.54C575.43 329.97 574.13 324.79 574.14 318C574.14 311.19 575.44 306.04 578.03 302.56C580.62 299.08 584.31 297.33 589.1 297.32C593.88 297.32 597.55 299.07 600.1 302.56C602.65 306.05 603.93 311.2 603.94 318C603.94 324.9 602.64 330.11 600.05 333.63M589.1 286.23C580.18 286.23 572.98 289.03 567.51 294.62C562.04 300.21 559.3 308.01 559.3 318C559.3 327.99 562.04 335.9 567.51 341.53C572.98 347.16 580.18 349.98 589.1 350C598.02 350 605.22 347.18 610.69 341.54C616.16 335.9 618.9 328.05 618.9 318C618.9 308 616.16 300.22 610.69 294.65C605.22 289.08 598.02 286.29 589.1 286.26" fill="white"/>
<path d="M668.37 320.16C668.37 325.83 667.11 330.36 664.59 333.72C660.3 339.35 652.25 340.44 646.62 336.14C645.55 335.32 644.61 334.34 643.85 333.24C641.28 329.55 640 324.47 640 318C640 311.53 641.26 306.48 643.77 302.86C646.07 299.35 650.04 297.3 654.23 297.45C658.29 297.3 662.17 299.17 664.57 302.45C667.09 305.78 668.35 310.41 668.35 316.32L668.37 320.16ZM668 296.32C664.51 289.6 658.67 286.24 650.48 286.23C643.23 286.05 636.34 289.35 631.94 295.11C627.19 301.02 624.82 308.72 624.82 318.22C624.82 327.72 627.07 335.39 631.57 341.22C635.71 346.89 642.37 350.17 649.39 350C658.72 350 665.21 345.86 668.85 337.59V348.5H682.6V260.32H668V296.32Z" fill="white"/>
<path d="M734.93 312.13H706.59C706.75 307.03 708.08 303.06 710.59 300.21C713.11 297.38 716.67 295.96 721.3 295.96C725.68 295.96 729.04 297.26 731.39 299.85C733.74 302.44 734.91 306.21 734.92 311.16V312.13H734.93ZM721.56 286.23C712.48 286.23 705.36 289.13 700.21 294.93C695.06 300.73 692.48 308.65 692.49 318.7C692.49 328.59 695.13 336.27 700.4 341.75C705.67 347.23 712.97 349.98 722.29 350C728 350.14 733.63 348.67 738.53 345.74C743.14 342.87 746.74 338.61 748.8 333.58L737.61 328.47C734.77 335.2 729.83 338.57 722.78 338.57C718.44 338.74 714.22 337.09 711.16 334C708.2 330.95 706.68 326.87 706.6 321.77H749.29V315.08C749.29 305.84 746.88 298.73 742.05 293.74C737.22 288.75 730.39 286.26 721.56 286.26" fill="white"/>
<path d="M774.35 260.32H759.75V348.5H774.35V260.32Z" fill="white"/>
<path d="M802.87 260.32H788.28V348.5H802.87V260.32Z" fill="white"/>
<path d="M855.35 312.13H827C827.16 307.03 828.49 303.06 831 300.21C833.51 297.36 837.07 295.95 841.7 295.96C846.09 295.96 849.46 297.26 851.8 299.85C854.14 302.44 855.32 306.21 855.33 311.16L855.35 312.13ZM842 286.23C832.92 286.23 825.8 289.13 820.65 294.93C815.5 300.73 812.91 308.65 812.9 318.7C812.9 328.59 815.54 336.27 820.81 341.75C826.08 347.23 833.38 349.98 842.7 350C848.41 350.14 854.04 348.67 858.94 345.74C863.55 342.86 867.14 338.61 869.21 333.58L858 328.43C855.16 335.16 850.21 338.53 843.16 338.53C838.83 338.71 834.63 337.06 831.57 334C828.61 330.95 827.09 326.87 827.01 321.77H869.7V315.08C869.7 305.84 867.29 298.73 862.46 293.74C857.63 288.75 850.81 286.25 842 286.23Z" fill="white"/>
<path d="M912.74 286.23C908.34 286.11 904.05 287.65 900.74 290.55C897.28 293.77 894.76 297.86 893.44 302.4V287.69H879.78V348.5H894.38V323.08C894.38 314.32 896.2 308.16 899.85 304.59C902.85 301.76 907.07 300.35 912.5 300.34H914.44V286.34C913.88 286.25 913.31 286.21 912.74 286.22" fill="white"/>
<path d="M345.19 332.94V74.5501C412.17 147.66 412.17 259.83 345.19 332.94ZM332.71 336.25H74.86V70.0801H332.71V336.25ZM203.79 395.37C157.81 395.41 113.36 378.85 78.61 348.73H329C294.26 378.85 249.81 395.41 203.83 395.37M62.43 332.94C-4.54999 259.83 -4.54999 147.66 62.43 74.5501V332.94ZM203.83 12.1201C249.18 12.0901 293.06 28.2201 327.6 57.6101H80C114.55 28.2101 158.44 12.0801 203.81 12.1201M203.81 -0.359863C91.27 -0.359863 -0.289978 91.2001 -0.289978 203.74C-0.289978 316.28 91.27 407.84 203.81 407.84C316.35 407.84 407.91 316.28 407.91 203.74C407.91 91.2001 316.35 -0.359863 203.81 -0.359863Z" fill="white"/>
<path d="M203.79 129L284.42 268.66H123.16L203.79 129ZM203.79 104.05L101.55 281.1H306L203.79 104.05Z" fill="white"/>
</g>
<defs>
<clipPath id="clip0_1301_9594">
<rect width="914" height="408" fill="white"/>
</clipPath>
</defs>
</svg>
