<svg width="36" height="38" viewBox="0 0 36 38" fill="none" xmlns="http://www.w3.org/2000/svg">
<path d="M18 12.3334C21.2167 12.3334 23.8333 14.9501 23.8333 18.1667C23.8333 21.3834 21.2167 24.0001 18 24.0001C14.7833 24.0001 12.1667 21.3834 12.1667 18.1667C12.1667 14.9501 14.7833 12.3334 18 12.3334ZM25.55 12.9667L32.1667 6.36675V10.6667H35.5V0.666748H25.5V4.00008H29.8L23.1833 10.6167C21.7167 9.60008 19.9333 9.00008 18 9.00008C16.0667 9.00008 14.2833 9.60008 12.8167 10.6167L11.7333 9.53341L14.0833 7.18341L11.7333 4.81675L9.36667 7.16675L6.2 4.00008H10.5V0.666748H0.5V10.6667H3.83333V6.36675L7.01667 9.53341L4.65 11.9001L7 14.2501L9.35 11.9001L10.4333 12.9834C9.43333 14.4501 8.83333 16.2334 8.83333 18.1667C8.83333 22.6667 12.0667 26.4001 16.3333 27.1834V30.6667H13V34.0001H16.3333V37.3334H19.6667V34.0001H23V30.6667H19.6667V27.1834C23.9333 26.4001 27.1667 22.6667 27.1667 18.1667C27.1667 16.2334 26.5667 14.4501 25.55 12.9667Z" fill="white"/>
</svg>
