<svg width="34" height="34" viewBox="0 0 34 34" fill="none" xmlns="http://www.w3.org/2000/svg">
<path d="M16.984 0.333252C7.78398 0.333252 0.333984 7.79992 0.333984 16.9999C0.333984 26.1999 7.78398 33.6666 16.984 33.6666C26.2007 33.6666 33.6673 26.1999 33.6673 16.9999C33.6673 7.79992 26.2007 0.333252 16.984 0.333252ZM8.66732 12.8333C8.66732 11.4499 9.78398 10.3333 11.1673 10.3333C12.5507 10.3333 13.6673 11.4499 13.6673 12.8333C13.6673 14.2166 12.5507 15.3333 11.1673 15.3333C9.78398 15.3333 8.66732 14.2166 8.66732 12.8333ZM22.0007 22.8333H12.0007V20.3333H22.0007V22.8333ZM22.834 15.3333C21.4507 15.3333 20.334 14.2166 20.334 12.8333C20.334 11.4499 21.4507 10.3333 22.834 10.3333C24.2173 10.3333 25.334 11.4499 25.334 12.8333C25.334 14.2166 24.2173 15.3333 22.834 15.3333Z" fill="white"/>
</svg>
