<svg width="30" height="24" viewBox="0 0 30 24" fill="none" xmlns="http://www.w3.org/2000/svg">
<path d="M26.9999 1.33329C25.5199 0.866626 23.8933 0.666626 22.3333 0.666626C19.7333 0.666626 16.9333 1.19996 14.9999 2.66663C13.0666 1.19996 10.2666 0.666626 7.66658 0.666626C5.06659 0.666626 2.26659 1.19996 0.333252 2.66663V22.2C0.333252 22.5333 0.666585 22.8666 0.999919 22.8666C1.13325 22.8666 1.19992 22.8 1.33325 22.8C3.13325 21.9333 5.73325 21.3333 7.66658 21.3333C10.2666 21.3333 13.0666 21.8666 14.9999 23.3333C16.7999 22.2 20.0666 21.3333 22.3333 21.3333C24.5333 21.3333 26.7999 21.7333 28.6666 22.7333C28.7999 22.8 28.8666 22.8 28.9999 22.8C29.3333 22.8 29.6666 22.4666 29.6666 22.1333V2.66663C28.8666 2.06663 27.9999 1.66663 26.9999 1.33329ZM26.9999 19.3333C25.5333 18.8666 23.9333 18.6666 22.3333 18.6666C20.0666 18.6666 16.7999 19.5333 14.9999 20.6666V5.33329C16.7999 4.19996 20.0666 3.33329 22.3333 3.33329C23.9333 3.33329 25.5333 3.53329 26.9999 3.99996V19.3333Z" fill="#7D8897"/>
<path d="M22.3333 8.66663C23.5066 8.66663 24.6399 8.78663 25.6666 9.01329V6.98663C24.6133 6.78663 23.4799 6.66663 22.3333 6.66663C20.0666 6.66663 18.0133 7.05329 16.3333 7.77329V9.98663C17.8399 9.13329 19.9333 8.66663 22.3333 8.66663Z" fill="#7D8897"/>
<path d="M16.3333 11.32V13.5333C17.8399 12.68 19.9333 12.2133 22.3333 12.2133C23.5066 12.2133 24.6399 12.3333 25.6666 12.56V10.5333C24.6133 10.3333 23.4799 10.2133 22.3333 10.2133C20.0666 10.2133 18.0133 10.6133 16.3333 11.32Z" fill="#7D8897"/>
<path d="M22.3333 13.7733C20.0666 13.7733 18.0133 14.16 16.3333 14.88V17.0933C17.8399 16.24 19.9333 15.7733 22.3333 15.7733C23.5066 15.7733 24.6399 15.8933 25.6666 16.12V14.0933C24.6133 13.88 23.4799 13.7733 22.3333 13.7733Z" fill="#7D8897"/>
</svg>
