<svg width="25" height="28" viewBox="0 0 25 28" fill="none" xmlns="http://www.w3.org/2000/svg">
<path d="M22.7333 1.33333L11.7999 10.2667L10.1866 8.88L14.9866 6.10667L8.87992 0L6.99992 1.88L10.6533 5.53333L2.99992 9.94667L1.41325 15.6667L4.69325 21.3333L6.99992 20L4.29325 15.3067L4.75992 13.5733L8.99992 16L9.66659 28H12.3333L12.9999 14.6667L24.3333 3.2L22.7333 1.33333Z" fill="#7D8897"/>
<path d="M2.99992 8C4.47268 8 5.66659 6.80609 5.66659 5.33333C5.66659 3.86057 4.47268 2.66667 2.99992 2.66667C1.52716 2.66667 0.333252 3.86057 0.333252 5.33333C0.333252 6.80609 1.52716 8 2.99992 8Z" fill="#7D8897"/>
</svg>
