<svg width="34" height="34" viewBox="0 0 34 34" fill="none" xmlns="http://www.w3.org/2000/svg">
<path d="M20.6149 19.8834L22.9482 15.85C23.0982 15.6 23.0315 15.2834 22.8149 15.1L20.3482 13.1667C20.3982 12.8 20.4315 12.4167 20.4315 12.0334C20.4315 11.65 20.3982 11.2667 20.3482 10.8834L22.8149 8.95003C23.0315 8.7667 23.0982 8.45003 22.9482 8.20003L20.6149 4.1667C20.4649 3.9167 20.1649 3.8167 19.8982 3.9167L16.9982 5.08337C16.3982 4.6167 15.7482 4.23337 15.0315 3.93337L14.5982 0.850032C14.5482 0.583366 14.2982 0.366699 14.0149 0.366699H9.34821C9.06488 0.366699 8.81488 0.583366 8.76488 0.866699L8.33155 3.95003C7.63155 4.25003 6.96488 4.63337 6.36488 5.10003L3.46488 3.93337C3.19822 3.83337 2.89822 3.93337 2.74822 4.18337L0.414882 8.2167C0.264882 8.4667 0.331549 8.78336 0.548215 8.9667L3.01488 10.9C2.96488 11.2667 2.93155 11.65 2.93155 12.0334C2.93155 12.4167 2.96488 12.8 3.01488 13.1834L0.548215 15.1167C0.331549 15.3 0.264882 15.6167 0.414882 15.8667L2.74822 19.9C2.89822 20.15 3.19822 20.25 3.46488 20.15L6.36488 18.9834C6.96488 19.45 7.61488 19.8334 8.33155 20.1334L8.76488 23.2167C8.81488 23.4834 9.06488 23.7 9.34821 23.7H14.0149C14.2982 23.7 14.5482 23.4834 14.5982 23.2L15.0315 20.1167C15.7315 19.8167 16.3982 19.4334 16.9982 18.9667L19.8982 20.1334C20.1649 20.2334 20.4649 20.1334 20.6149 19.8834ZM11.6815 15.3667C9.84821 15.3667 8.34821 13.8667 8.34821 12.0334C8.34821 10.2 9.84821 8.70003 11.6815 8.70003C13.5149 8.70003 15.0149 10.2 15.0149 12.0334C15.0149 13.8667 13.5149 15.3667 11.6815 15.3667Z" fill="white"/>
<path d="M33.5315 28.15L31.9315 26.9167C31.9649 26.6834 31.9982 26.4334 31.9982 26.1834C31.9982 25.9334 31.9815 25.6834 31.9315 25.45L33.5149 24.2167C33.6482 24.1 33.6982 23.9 33.5982 23.7334L32.0982 21.15C32.0149 20.9834 31.8149 20.9334 31.6315 20.9834L29.7815 21.7334C29.3982 21.4334 28.9815 21.1834 28.5149 21L28.2315 19.0334C28.2149 18.8334 28.0482 18.7 27.8815 18.7H24.8982C24.7149 18.7 24.5482 18.8334 24.5315 19.0167L24.2482 20.9834C23.7982 21.1834 23.3649 21.4167 22.9815 21.7167L21.1315 20.9667C20.9649 20.9 20.7649 20.9667 20.6649 21.1334L19.1649 23.7167C19.0815 23.8834 19.0982 24.0834 19.2482 24.2L20.8315 25.4334C20.7982 25.6667 20.7815 25.9167 20.7815 26.1667C20.7815 26.4167 20.7982 26.6667 20.8315 26.9L19.2482 28.1334C19.1149 28.25 19.0649 28.45 19.1649 28.6167L20.6649 31.2C20.7482 31.3667 20.9482 31.4167 21.1315 31.3667L22.9815 30.6167C23.3649 30.9167 23.7815 31.1667 24.2482 31.35L24.5315 33.3167C24.5649 33.5 24.7149 33.6334 24.8982 33.6334H27.8815C28.0649 33.6334 28.2315 33.5 28.2482 33.3167L28.5315 31.35C28.9815 31.15 29.4149 30.9167 29.7815 30.6167L31.6482 31.3667C31.8149 31.4334 32.0149 31.3667 32.1149 31.2L33.6149 28.6167C33.7149 28.4667 33.6649 28.2667 33.5315 28.15ZM26.3815 28.4167C25.1482 28.4167 24.1315 27.4167 24.1315 26.1667C24.1315 24.9167 25.1315 23.9167 26.3815 23.9167C27.6315 23.9167 28.6315 24.9167 28.6315 26.1667C28.6315 27.4167 27.6149 28.4167 26.3815 28.4167Z" fill="white"/>
</svg>
