<svg width="40" height="28" viewBox="0 0 40 28" fill="none" xmlns="http://www.w3.org/2000/svg">
<path d="M6.5 4.47615H3.5C2.66875 4.47615 2 5.11305 2 5.90472V12.0952H0.5C0.225 12.0952 0 12.3095 0 12.5714V15.4285C0 15.6904 0.225 15.9047 0.5 15.9047H2V22.0952C2 22.8869 2.66875 23.5238 3.5 23.5238H6.5C7.33125 23.5238 8 22.8869 8 22.0952V5.90472C8 5.11305 7.33125 4.47615 6.5 4.47615ZM39.5 12.0952H38V5.90472C38 5.11305 37.3312 4.47615 36.5 4.47615H33.5C32.6688 4.47615 32 5.11305 32 5.90472V22.0952C32 22.8869 32.6688 23.5238 33.5 23.5238H36.5C37.3312 23.5238 38 22.8869 38 22.0952V15.9047H39.5C39.775 15.9047 40 15.6904 40 15.4285V12.5714C40 12.3095 39.775 12.0952 39.5 12.0952ZM28.5 0.666626H25.5C24.6688 0.666626 24 1.30353 24 2.0952V12.0952H16V2.0952C16 1.30353 15.3313 0.666626 14.5 0.666626H11.5C10.6687 0.666626 10 1.30353 10 2.0952V25.9047C10 26.6964 10.6687 27.3333 11.5 27.3333H14.5C15.3313 27.3333 16 26.6964 16 25.9047V15.9047H24V25.9047C24 26.6964 24.6688 27.3333 25.5 27.3333H28.5C29.3312 27.3333 30 26.6964 30 25.9047V2.0952C30 1.30353 29.3312 0.666626 28.5 0.666626Z" fill="white"/>
</svg>
