<svg width="28" height="36" viewBox="0 0 28 36" fill="none" xmlns="http://www.w3.org/2000/svg">
<path d="M26.4697 19.0027C23.853 12.2027 14.5363 11.836 16.7863 1.95268C16.953 1.21934 16.1697 0.652675 15.5363 1.03601C9.48634 4.60268 5.13634 11.7527 8.78634 21.1193C9.08634 21.886 8.18634 22.6027 7.53634 22.1027C4.51968 19.8193 4.20301 16.536 4.46968 14.186C4.56968 13.3193 3.43634 12.9027 2.95301 13.6193C1.81968 15.3527 0.669678 18.1527 0.669678 22.3693C1.30301 31.7027 9.18635 34.5693 12.0197 34.936C16.0697 35.4527 20.453 34.7027 23.603 31.8193C27.0697 28.6027 28.3363 23.4693 26.4697 19.0027ZM11.003 27.386C13.403 26.8027 14.6363 25.0693 14.9697 23.536C15.5197 21.1527 13.3697 18.8193 14.8197 15.0527C15.3697 18.1693 20.2697 20.1193 20.2697 23.5193C20.403 27.736 15.8363 31.3527 11.003 27.386Z" fill="white"/>
</svg>
