<svg width="38" height="52" viewBox="0 0 38 52" fill="none" xmlns="http://www.w3.org/2000/svg">
<path d="M9.77569 36.6909C8.93084 35.8196 9.37125 36.0653 7.3335 35.5028C6.40892 35.2472 5.59615 34.7559 4.86116 34.1674L0.450232 45.3201C0.0234304 46.3999 0.820644 47.5729 1.95036 47.5288L7.07294 47.3273L10.5962 51.1652C11.374 52.0114 12.739 51.7477 13.1658 50.6679L18.2262 37.8729C17.1723 38.4785 16.0027 38.8334 14.7933 38.8334C12.8975 38.8334 11.1164 38.0725 9.77569 36.6909ZM37.5499 45.3201L33.1389 34.1674C32.4039 34.7569 31.5912 35.2472 30.6666 35.5028C28.6181 36.0683 29.0673 35.8217 28.2244 36.6909C26.8837 38.0725 25.1016 38.8334 23.2058 38.8334C21.9964 38.8334 20.8268 38.4775 19.773 37.8729L24.8333 50.6679C25.2601 51.7477 26.6261 52.0114 27.4029 51.1652L30.9271 47.3273L36.0497 47.5288C37.1794 47.5729 37.9767 46.3989 37.5499 45.3201ZM25.9028 34.422C27.3883 32.863 27.5584 32.9974 29.674 32.4028C31.0244 32.0229 32.0802 30.915 32.4419 29.4974C33.1691 26.65 32.9805 26.9939 34.9647 24.9105C35.9535 23.8729 36.3395 22.36 35.9778 20.9423C35.2515 18.097 35.2506 18.494 35.9778 15.6456C36.3395 14.228 35.9535 12.7151 34.9647 11.6774C32.9805 9.59405 33.1691 9.93693 32.4419 7.0906C32.0802 5.67294 31.0244 4.56509 29.674 4.18511C26.9634 3.42214 27.2901 3.62166 25.3039 1.53728C24.3151 0.499609 22.8733 0.0935622 21.5229 0.473542C18.8134 1.23551 19.1916 1.23651 16.4772 0.473542C15.1267 0.0935622 13.685 0.498606 12.6962 1.53728C10.7119 3.62065 11.0386 3.42214 8.3271 4.18511C6.97669 4.56509 5.92087 5.67294 5.55921 7.0906C4.83296 9.93693 5.0206 9.59405 3.03632 11.6774C2.04758 12.7151 1.66064 14.228 2.02327 15.6456C2.74951 18.489 2.75049 18.092 2.02327 20.9413C1.66161 22.359 2.04758 23.8719 3.03632 24.9105C5.0206 26.9939 4.83199 26.65 5.55921 29.4974C5.92087 30.915 6.97669 32.0229 8.3271 32.4028C10.5029 33.0144 10.6653 32.9182 12.0973 34.422C13.3836 35.7725 15.3873 36.0142 16.9331 35.0056C17.5513 34.6009 18.2683 34.386 19.0005 34.386C19.7327 34.386 20.4498 34.6009 21.0679 35.0056C22.6128 36.0142 24.6165 35.7725 25.9028 34.422ZM9.82819 17.9757C9.82819 12.659 13.9348 8.34884 19 8.34884C24.0653 8.34884 28.1719 12.659 28.1719 17.9757C28.1719 23.2924 24.0653 27.6025 19 27.6025C13.9348 27.6025 9.82819 23.2924 9.82819 17.9757Z" fill="white"/>
</svg>
