<svg width="47" height="50" viewBox="0 0 47 50" fill="none" xmlns="http://www.w3.org/2000/svg">
<path d="M11.58 35.6666L21.3333 40.9866V47.3333H4.99998C2.40998 47.3333 0.333313 45.2566 0.333313 42.6666V5.33329C0.333313 4.09562 0.824978 2.90863 1.70015 2.03346C2.57532 1.15829 3.7623 0.666626 4.99998 0.666626H7.33331V17L13.1666 13.5L19 17V0.666626H33C34.2377 0.666626 35.4246 1.15829 36.2998 2.03346C37.175 2.90863 37.6666 4.09562 37.6666 5.33329V25.26L34.1666 23.3466L11.58 35.6666ZM47 35.6666L34.1666 28.6666L21.3333 35.6666L34.1666 42.6666L47 35.6666ZM26 40.5433V45.21L34.1666 49.6666L42.3333 45.21V40.5433L34.1666 45L26 40.5433Z" fill="white"/>
</svg>
