<svg width="45" height="52" viewBox="0 0 45 52" fill="none" xmlns="http://www.w3.org/2000/svg">
<path d="M23.4706 51.6667L22.8186 43.9667H22.1667C15.9948 43.9667 10.7574 41.8492 6.45441 37.6142C2.15147 33.3792 0 28.2245 0 22.15C0 16.0756 2.15147 10.9209 6.45441 6.68587C10.7574 2.45087 15.9948 0.333374 22.1667 0.333374C25.2526 0.333374 28.1317 0.899752 30.8038 2.03251C33.4778 3.16697 35.8257 4.72836 37.8476 6.71667C39.8678 8.7067 41.4534 11.0167 42.6043 13.6467C43.757 16.2784 44.3333 19.1128 44.3333 22.15C44.3333 25.3584 43.8013 28.4384 42.7373 31.39C41.6716 34.3417 40.2155 37.0795 38.3692 39.6034C36.5211 42.1273 34.3262 44.4159 31.7844 46.4692C29.2409 48.5225 26.4696 50.255 23.4706 51.6667ZM22.1015 36.2025C22.8404 36.2025 23.4706 35.9459 23.9922 35.4325C24.5137 34.9192 24.7745 34.2989 24.7745 33.5717C24.7745 32.8445 24.5137 32.2242 23.9922 31.7109C23.4706 31.1975 22.8404 30.9409 22.1015 30.9409C21.3626 30.9409 20.7324 31.1975 20.2108 31.7109C19.6892 32.2242 19.4284 32.8445 19.4284 33.5717C19.4284 34.2989 19.6892 34.9192 20.2108 35.4325C20.7324 35.9459 21.3626 36.2025 22.1015 36.2025ZM20.2108 28.0534H24.1225C24.1225 26.77 24.2529 25.8717 24.5137 25.3584C24.7745 24.845 25.6003 23.9039 26.9912 22.535C27.7735 21.765 28.4255 20.9309 28.9471 20.0325C29.4686 19.1342 29.7294 18.1717 29.7294 17.145C29.7294 14.9634 28.9801 13.3267 27.4815 12.235C25.9811 11.145 24.2095 10.6 22.1667 10.6C20.2542 10.6 18.6461 11.1236 17.3422 12.1708C16.0382 13.2198 15.1255 14.4928 14.6039 15.99L18.2549 17.4017C18.4722 16.6745 18.8851 15.9575 19.4936 15.2508C20.1021 14.5459 20.9931 14.1934 22.1667 14.1934C23.3402 14.1934 24.2208 14.5142 24.8084 15.1559C25.3943 15.7975 25.6873 16.5034 25.6873 17.2734C25.6873 18.0006 25.4699 18.6525 25.0353 19.2292C24.6007 19.8075 24.0791 20.3962 23.4706 20.995C21.9493 22.2784 21.0262 23.2939 20.7011 24.0417C20.3742 24.7911 20.2108 26.1284 20.2108 28.0534Z" fill="white"/>
</svg>
