<svg width="48" height="52" viewBox="0 0 48 52" fill="none" xmlns="http://www.w3.org/2000/svg">
<path fill-rule="evenodd" clip-rule="evenodd" d="M22.18 0.66096C23.2031 0.279572 24.321 0.229851 25.3741 0.518891L25.82 0.66096L43.9682 7.44159C44.8884 7.78537 45.6915 8.38262 46.2841 9.16374C46.8767 9.94486 47.2343 10.8777 47.3152 11.8535L47.3334 12.2797V26.1329C47.3333 30.3186 46.1989 34.4266 44.0501 38.0233C41.9013 41.6201 38.8177 44.5721 35.1248 46.5677L34.4352 46.9268L25.7396 51.2586C25.2609 51.4968 24.7379 51.634 24.2035 51.6615C23.669 51.6891 23.1346 51.6064 22.6337 51.4188L22.2604 51.2586L13.5648 46.9268C9.80716 45.0548 6.62647 42.2067 4.35855 38.6831C2.09062 35.1596 0.819599 31.0913 0.67965 26.9078L0.666687 26.1329V12.2797C0.666702 11.3011 0.945719 10.3425 1.47126 9.51574C1.99679 8.68893 2.74723 8.02786 3.63521 7.60949L4.03187 7.44159L22.18 0.66096ZM32.9004 17.2806L20.9796 29.1577L16.3959 24.5908C15.9095 24.1064 15.2498 23.8344 14.5621 23.8347C13.8743 23.8349 13.2149 24.1074 12.7287 24.592C12.2426 25.0767 11.9696 25.734 11.9699 26.4192C11.9701 27.1044 12.2435 27.7615 12.73 28.2458L18.9626 34.4556C19.2274 34.7196 19.5419 34.929 19.888 35.0719C20.2341 35.2148 20.605 35.2883 20.9796 35.2883C21.3543 35.2883 21.7252 35.2148 22.0713 35.0719C22.4174 34.929 22.7318 34.7196 22.9967 34.4556L36.5663 20.9331C36.8139 20.6948 37.0114 20.4098 37.1473 20.0946C37.2832 19.7795 37.3547 19.4405 37.3577 19.0975C37.3607 18.7546 37.2951 18.4144 37.1647 18.097C37.0344 17.7795 36.8419 17.4911 36.5984 17.2486C36.355 17.006 36.0656 16.8142 35.7469 16.6844C35.4283 16.5545 35.0869 16.4891 34.7427 16.4921C34.3984 16.4951 34.0582 16.5663 33.7419 16.7017C33.4256 16.8371 33.1395 17.0339 32.9004 17.2806Z" fill="white"/>
</svg>
