<svg width="25" height="28" viewBox="0 0 25 28" fill="none" xmlns="http://www.w3.org/2000/svg">
<path d="M19.5335 18.8486L24.3335 14.0001L19.5335 9.1516V12.788H13.4615C13.0535 9.03038 10.7495 5.85463 7.5335 4.24251C7.4855 2.25463 5.9015 0.666748 3.9335 0.666748C1.9415 0.666748 0.333496 2.29099 0.333496 4.30311C0.333496 6.31523 1.9415 7.93948 3.9335 7.93948C5.0735 7.93948 6.0695 7.39402 6.7295 6.55766C9.0095 7.81826 10.6535 10.0849 11.0375 12.788H7.3175C6.8135 11.3819 5.4935 10.3637 3.9335 10.3637C1.9415 10.3637 0.333496 11.988 0.333496 14.0001C0.333496 16.0122 1.9415 17.6364 3.9335 17.6364C5.4935 17.6364 6.8135 16.6183 7.3175 15.2122H11.0375C10.6535 17.9152 9.0095 20.1819 6.7415 21.4425C6.0695 20.6061 5.0735 20.0607 3.9335 20.0607C1.9415 20.0607 0.333496 21.6849 0.333496 23.6971C0.333496 25.7092 1.9415 27.3334 3.9335 27.3334C5.9015 27.3334 7.4855 25.7455 7.5215 23.7577C10.7375 22.1455 13.0415 18.9698 13.4495 15.2122H19.5335V18.8486Z" fill="#7D8897"/>
</svg>
