<svg width="23" height="27" viewBox="0 0 23 27" fill="none" xmlns="http://www.w3.org/2000/svg">
<path d="M6.99992 26.8334V9.20008C4.9777 8.66675 3.36125 7.54986 2.15059 5.84941C0.93903 4.14986 0.333252 2.25564 0.333252 0.166748H2.99992C2.99992 2.01119 3.59458 3.58319 4.78392 4.88275C5.97236 6.18319 7.48881 6.83341 9.33325 6.83341H12.6666C13.3333 6.83341 13.9555 6.95564 14.5333 7.20008C15.111 7.44453 15.6333 7.80008 16.0999 8.26675L22.1333 14.3001L20.2666 16.1667L14.9999 10.9001V26.8334H12.3333V18.8334H9.66658V26.8334H6.99992ZM10.9999 5.50008C10.2666 5.50008 9.63903 5.23875 9.11725 4.71608C8.59459 4.1943 8.33325 3.56675 8.33325 2.83341C8.33325 2.10008 8.59459 1.47208 9.11725 0.949415C9.63903 0.427637 10.2666 0.166748 10.9999 0.166748C11.7333 0.166748 12.3613 0.427637 12.8839 0.949415C13.4057 1.47208 13.6666 2.10008 13.6666 2.83341C13.6666 3.56675 13.4057 4.1943 12.8839 4.71608C12.3613 5.23875 11.7333 5.50008 10.9999 5.50008Z" fill="#7D8897"/>
</svg>
