<svg width="24" height="24" viewBox="0 0 24 24" fill="none" xmlns="http://www.w3.org/2000/svg">
<path fill-rule="evenodd" clip-rule="evenodd" d="M15.3333 0V5.33333H24V6.66667H15.3333V11.3333H24V1.33333C24 0.596667 23.4427 0 22.7553 0H15.3333ZM15.3333 12.6667H24V17.3333H15.3333V12.6667ZM15.3333 18.6667H24V22.6667C24 23.4033 23.4427 24 22.7553 24H15.3333V18.6667ZM14 18.6667V24H6.578C5.89067 24 5.33333 23.4033 5.33333 22.6667V18.6667H14ZM14 5.33333H5.33333V1.33333C5.33333 0.596667 5.89067 0 6.578 0H14V5.33333ZM11.368 6.66667V11.3333H14V6.66667H11.368ZM11.368 12.6667V17.3333H14V12.6667H11.368ZM0 7.33333C0 7.15652 0.070238 6.98695 0.195262 6.86193C0.320287 6.7369 0.489856 6.66667 0.666667 6.66667H9.43867C9.61548 6.66667 9.78505 6.7369 9.91007 6.86193C10.0351 6.98695 10.1053 7.15652 10.1053 7.33333V16.6667C10.1053 16.8435 10.0351 17.013 9.91007 17.1381C9.78505 17.2631 9.61548 17.3333 9.43867 17.3333H0.666667C0.489856 17.3333 0.320287 17.2631 0.195262 17.1381C0.070238 17.013 0 16.8435 0 16.6667V7.33333ZM2.40467 8.66667H3.91133L5.134 11.1693L6.42667 8.66667H7.83467L5.89467 12L7.87867 15.3333H6.39333L5.06067 12.7133L3.734 15.3333H2.22667L4.24267 11.988L2.40467 8.66667Z" fill="#7D8897"/>
</svg>
