<svg width="32" height="29" viewBox="0 0 32 29" fill="none" xmlns="http://www.w3.org/2000/svg">
<path d="M31.4144 12.2476L28.5863 9.4195C28.2113 9.0445 27.7025 8.83388 27.1719 8.83388H24V3.83325C24 2.17638 22.6569 0.833252 21 0.833252H11C9.34312 0.833252 8 2.17638 8 3.83325V8.83325H4.82812C4.2975 8.83325 3.78937 9.04388 3.41375 9.41888L0.585625 12.2476C0.210625 12.6226 0 13.1314 0 13.662V18.8333H8V17.8333C8 17.2808 8.4475 16.8333 9 16.8333H11C11.5525 16.8333 12 17.2808 12 17.8333V18.8333H20V17.8333C20 17.2808 20.4475 16.8333 21 16.8333H23C23.5525 16.8333 24 17.2808 24 17.8333V18.8333H32V13.6614C32 13.1314 31.7894 12.6226 31.4144 12.2476ZM20 8.83325H12V4.83325H20V8.83325ZM24 21.8333C24 22.3858 23.5525 22.8333 23 22.8333H21C20.4475 22.8333 20 22.3858 20 21.8333V20.8333H12V21.8333C12 22.3858 11.5525 22.8333 11 22.8333H9C8.4475 22.8333 8 22.3858 8 21.8333V20.8333H0V26.8333C0 27.9376 0.895625 28.8333 2 28.8333H30C31.1044 28.8333 32 27.9376 32 26.8333V20.8333H24V21.8333Z" fill="#7D8897"/>
</svg>
