<svg width="24" height="22" viewBox="0 0 24 22" fill="none" xmlns="http://www.w3.org/2000/svg">
<path d="M14.0001 0.333252H8.66675V5.66658H14.0001V0.333252Z" fill="#7D8897"/>
<path d="M6.00008 16.3333H0.666748V21.6666H6.00008V16.3333Z" fill="#7D8897"/>
<path d="M6.00008 8.33325H0.666748V13.6666H6.00008V8.33325Z" fill="#7D8897"/>
<path d="M6.00008 0.333252H0.666748V5.66658H6.00008V0.333252Z" fill="#7D8897"/>
<path d="M22.0001 0.333252H16.6667V5.66658H22.0001V0.333252Z" fill="#7D8897"/>
<path d="M10.0001 18.8133V21.6666H12.8001L20.7734 13.7066L17.9467 10.8799L10.0001 18.8133Z" fill="#7D8897"/>
<path d="M14.0001 11.0399V8.33325H8.66675V13.6666H11.3734L14.0001 11.0399Z" fill="#7D8897"/>
<path d="M23.1334 10.4133L21.2534 8.53325C20.9867 8.26658 20.5734 8.26658 20.3067 8.53325L18.8934 9.94659L21.7201 12.7733L23.1334 11.3599C23.4001 11.0933 23.4001 10.6799 23.1334 10.4133Z" fill="#7D8897"/>
</svg>
