<svg width="914" height="408" viewBox="0 0 914 408" fill="none" xmlns="http://www.w3.org/2000/svg">
<g clip-path="url(#clip0_1301_9614)">
<path d="M476.67 108.12H514.98V95.7201H476.67V71.7501H517.05V59.3501H460.98V145.7H476.67V108.12Z" fill="#231F20"/>
<path d="M543.73 147.16C547.873 147.209 551.93 145.98 555.35 143.64C558.706 141.398 561.279 138.164 562.71 134.39V145.7H576.58V84.8901H561.86V118.58C561.86 123.687 560.643 127.78 558.21 130.86C557.075 132.352 555.6 133.551 553.907 134.356C552.214 135.162 550.354 135.55 548.48 135.49C541.34 135.49 537.77 130.907 537.77 121.74V84.8901H523.18V123.89C523.18 139.377 530.03 147.12 543.73 147.12" fill="#231F20"/>
<path d="M604.83 57.5298H590.23V145.71H604.83V57.5298Z" fill="#231F20"/>
<path d="M633.36 57.5298H618.77V145.71H633.36V57.5298Z" fill="#231F20"/>
<path d="M488.35 249.17C498.97 249.17 507.16 246.697 512.92 241.75C515.708 239.427 517.933 236.503 519.428 233.196C520.923 229.89 521.648 226.287 521.55 222.66C521.55 215.44 519.523 209.883 515.47 205.99C511.417 202.097 505.537 199.34 497.83 197.72L485.3 195.05C480.52 193.99 477.1 192.48 475.03 190.49C473.97 189.413 473.147 188.126 472.613 186.712C472.079 185.299 471.846 183.789 471.93 182.28C471.871 180.603 472.235 178.938 472.988 177.439C473.741 175.939 474.859 174.654 476.24 173.7C479.12 171.633 482.913 170.6 487.62 170.6C498.953 170.6 506.09 175.83 509.03 186.29L521.55 179.72C520.757 176.458 519.32 173.388 517.325 170.688C515.33 167.989 512.816 165.715 509.93 164C504.063 160.473 496.87 158.71 488.35 158.71C478.697 158.71 471.013 160.96 465.3 165.46C459.587 169.96 456.73 175.98 456.73 183.52C456.73 196.98 464.27 205.25 479.35 208.33L491.35 210.88C496.463 211.94 500.173 213.423 502.48 215.33C504.787 217.237 505.94 220.177 505.94 224.15C505.94 228.357 504.3 231.497 501.02 233.57C497.322 235.747 493.079 236.822 488.79 236.67C482.47 236.67 477.403 235.07 473.59 231.87C469.682 228.523 466.848 224.099 465.44 219.15L452.1 225C453.831 232.163 458.138 238.439 464.2 242.63C470.407 247.01 478.457 249.2 488.35 249.2" fill="#231F20"/>
<path d="M563.74 234.82C561.777 235.304 559.762 235.545 557.74 235.54C551.82 235.54 548.86 232.34 548.86 225.94V196.87H563.7V186.29H548.9V165.13L534.31 171V186.33H523.36V196.91H534.31V228.29C534.31 234.77 535.81 239.717 538.81 243.13C541.81 246.543 546.81 248.243 553.81 248.23C557.172 248.204 560.522 247.839 563.81 247.14L563.74 234.82Z" fill="#231F20"/>
<path d="M609.63 222.17C609.63 227.03 608.25 230.923 605.49 233.85C604.073 235.32 602.359 236.47 600.462 237.226C598.565 237.981 596.529 238.323 594.49 238.23C591.26 238.23 588.72 237.48 586.9 235.98C585.997 235.238 585.279 234.296 584.803 233.229C584.328 232.161 584.107 230.998 584.16 229.83C584.16 224.803 588.053 221.64 595.84 220.34L609.58 218.27L609.63 222.17ZM586 205.87C586.24 202.38 587.41 199.73 589.47 197.87C591.53 196.01 594.36 195.13 597.93 195.13C601.823 195.13 604.68 196.164 606.5 198.23C608.33 200.3 609.23 203.6 609.23 208.14V209.72L596.34 211.3C587.18 212.6 580.573 214.427 576.52 216.78C571.573 219.86 569.1 224.44 569.1 230.52C569.004 232.983 569.464 235.437 570.443 237.699C571.423 239.961 572.898 241.974 574.76 243.59C578.52 246.883 583.52 248.527 589.76 248.52C594.243 248.637 598.674 247.545 602.59 245.36C606.059 243.405 608.744 240.31 610.19 236.6C610.265 240.107 610.599 243.603 611.19 247.06H625.8C624.6 242.88 624 236.61 624 228.25V210.13C624 201.29 621.913 194.863 617.74 190.85C613.567 186.837 606.98 184.837 597.98 184.85C590.107 184.85 583.773 186.733 578.98 190.5C576.627 192.34 574.701 194.669 573.337 197.326C571.973 199.984 571.203 202.906 571.08 205.89L586 205.87Z" fill="#231F20"/>
<path d="M661.82 196.26C663.436 196.189 665.049 196.444 666.564 197.009C668.079 197.574 669.465 198.438 670.64 199.55C672.86 201.74 674.23 204.9 674.71 209.03L688.94 206.72C688.047 199.827 685.25 194.457 680.55 190.61C675.85 186.763 669.73 184.837 662.19 184.83C652.943 184.83 645.643 187.67 640.29 193.35C634.937 199.03 632.27 206.81 632.29 216.69C632.29 226.337 634.987 234.06 640.38 239.86C645.773 245.66 653.01 248.56 662.09 248.56C669.31 248.56 675.33 246.613 680.15 242.72C685.031 238.743 688.19 233.037 688.97 226.79L675.2 224C673.82 232.667 669.44 237 662.06 237C659.928 237.089 657.807 236.64 655.895 235.692C653.983 234.745 652.341 233.331 651.12 231.58C648.52 227.98 647.223 222.893 647.23 216.32C647.23 210.08 648.527 205.177 651.12 201.61C652.312 199.892 653.917 198.502 655.786 197.565C657.656 196.629 659.73 196.176 661.82 196.25" fill="#231F20"/>
<path d="M754.36 186.29H736.61L712.89 213.29V158.92H698.29V247.1H712.89V228.98L721.89 219.61L738.43 247.1H755.34L732.11 210.13L754.36 186.29Z" fill="#231F20"/>
<path d="M507.08 322.11C506.095 325.165 505.362 328.295 504.89 331.47H504.65C504.235 328.324 503.501 325.228 502.46 322.23L482.87 262.14H461V348.5H474.74V285.5C474.775 282.33 474.614 279.161 474.26 276.01H474.74C475.119 279.124 475.854 282.184 476.93 285.13L497.61 348.5H511.61L532 285.13C533.017 282.162 533.754 279.106 534.2 276H534.57C534.216 279.151 534.052 282.32 534.08 285.49V348.49H548.43V262.14H526.43L507.08 322.11Z" fill="#231F20"/>
<path d="M600.05 333.6C598.806 335.32 597.154 336.704 595.243 337.627C593.331 338.551 591.221 338.984 589.1 338.89C584.32 338.89 580.63 337.107 578.03 333.54C575.43 329.973 574.133 324.793 574.14 318C574.14 311.187 575.437 306.04 578.03 302.56C580.623 299.08 584.313 297.333 589.1 297.32C593.88 297.32 597.547 299.067 600.1 302.56C602.653 306.053 603.933 311.2 603.94 318C603.94 324.9 602.643 330.11 600.05 333.63M589.1 286.23C580.18 286.23 572.983 289.027 567.51 294.62C562.037 300.213 559.3 308.007 559.3 318C559.3 328.06 562.037 335.903 567.51 341.53C572.983 347.157 580.18 349.98 589.1 350C598.02 350 605.217 347.18 610.69 341.54C616.163 335.9 618.9 328.053 618.9 318C618.9 308 616.163 300.217 610.69 294.65C605.217 289.083 598.02 286.287 589.1 286.26" fill="#231F20"/>
<path d="M668.37 320.16C668.37 325.83 667.11 330.36 664.59 333.72C663.363 335.329 661.773 336.625 659.95 337.502C658.126 338.379 656.121 338.811 654.098 338.765C652.075 338.718 650.092 338.193 648.311 337.233C646.529 336.272 645.001 334.904 643.85 333.24C641.283 329.553 640 324.473 640 318C640 311.526 641.257 306.48 643.77 302.86C644.902 301.135 646.459 299.731 648.291 298.783C650.123 297.836 652.169 297.377 654.23 297.45C656.231 297.376 658.219 297.792 660.022 298.664C661.824 299.536 663.386 300.835 664.57 302.45C667.09 305.783 668.35 310.406 668.35 316.32L668.37 320.16ZM668 296.32C664.507 289.6 658.667 286.236 650.48 286.23C646.908 286.141 643.366 286.9 640.144 288.443C636.921 289.987 634.11 292.271 631.94 295.11C627.193 301.016 624.82 308.72 624.82 318.22C624.82 327.72 627.07 335.386 631.57 341.22C633.61 344.014 636.297 346.273 639.4 347.802C642.504 349.331 645.931 350.085 649.39 350C658.723 350 665.21 345.863 668.85 337.59V348.5H682.6V260.32H668V296.32Z" fill="#231F20"/>
<path d="M734.93 312.13H706.59C706.75 307.03 708.083 303.057 710.59 300.21C713.11 297.38 716.67 295.96 721.3 295.96C725.68 295.96 729.043 297.257 731.39 299.85C733.737 302.443 734.913 306.213 734.92 311.16L734.93 312.13ZM721.55 286.23C712.47 286.23 705.353 289.13 700.2 294.93C695.047 300.73 692.473 308.653 692.48 318.7C692.48 328.587 695.117 336.27 700.39 341.75C705.663 347.23 712.96 349.98 722.28 350C727.987 350.143 733.618 348.666 738.52 345.74C743.135 342.865 746.728 338.611 748.79 333.58L737.6 328.47C734.76 335.203 729.817 338.57 722.77 338.57C720.622 338.656 718.48 338.294 716.479 337.508C714.479 336.721 712.664 335.526 711.15 334C708.19 330.947 706.67 326.87 706.59 321.77H749.28V315.08C749.28 305.84 746.867 298.727 742.04 293.74C737.213 288.753 730.383 286.26 721.55 286.26" fill="#231F20"/>
<path d="M774.35 260.32H759.75V348.5H774.35V260.32Z" fill="#231F20"/>
<path d="M802.87 260.32H788.28V348.5H802.87V260.32Z" fill="#231F20"/>
<path d="M855.35 312.13H827C827.16 307.03 828.493 303.057 831 300.21C833.507 297.363 837.073 295.947 841.7 295.96C846.093 295.96 849.46 297.257 851.8 299.85C854.14 302.443 855.317 306.213 855.33 311.16L855.35 312.13ZM842 286.23C832.92 286.23 825.803 289.13 820.65 294.93C815.497 300.73 812.913 308.653 812.9 318.7C812.9 328.587 815.537 336.27 820.81 341.75C826.083 347.23 833.38 349.98 842.7 350C848.407 350.143 854.038 348.666 858.94 345.74C863.55 342.86 867.142 338.607 869.21 333.58L858 328.43C855.16 335.163 850.213 338.53 843.16 338.53C841.02 338.618 838.885 338.261 836.89 337.481C834.895 336.701 833.083 335.516 831.57 334C828.61 330.947 827.09 326.87 827.01 321.77H869.7V315.08C869.7 305.84 867.287 298.727 862.46 293.74C857.633 288.753 850.813 286.25 842 286.23Z" fill="#231F20"/>
<path d="M912.74 286.23C908.339 286.106 904.053 287.649 900.74 290.55C897.283 293.77 894.761 297.864 893.44 302.4V287.69H879.78V348.5H894.38V323.08C894.38 314.32 896.203 308.157 899.85 304.59C902.85 301.763 907.067 300.347 912.5 300.34H914.44V286.34C913.878 286.248 913.309 286.207 912.74 286.22" fill="#231F20"/>
<path d="M345.19 332.94V74.5501C377.5 109.819 395.422 155.914 395.422 203.745C395.422 251.576 377.5 297.671 345.19 332.94ZM332.71 336.25H74.86V70.0801H332.71V336.25ZM203.79 395.37C157.808 395.407 113.358 378.845 78.61 348.73H329C294.257 378.846 249.809 395.408 203.83 395.37M62.43 332.94C30.1204 297.671 12.1985 251.576 12.1985 203.745C12.1985 155.914 30.1204 109.819 62.43 74.5501V332.94ZM203.83 12.1201C249.182 12.0884 293.063 28.216 327.6 57.6101H80C114.547 28.2055 158.443 12.0772 203.81 12.1201M203.81 -0.359863C91.27 -0.359863 -0.290009 91.2001 -0.290009 203.74C-0.290009 316.28 91.27 407.84 203.81 407.84C316.35 407.84 407.91 316.28 407.91 203.74C407.91 91.2001 316.35 -0.359863 203.81 -0.359863Z" fill="#231F20"/>
<path d="M203.79 129L284.42 268.66H123.16L203.79 129ZM203.79 104.05L101.55 281.1H306L203.79 104.05Z" fill="#231F20"/>
</g>
<defs>
<clipPath id="clip0_1301_9614">
<rect width="914" height="408" fill="white"/>
</clipPath>
</defs>
</svg>
